<?xml version="1.0" encoding="utf-8"?>
<!-- Generator: Adobe Illustrator 16.0.4, SVG Export Plug-In . SVG Version: 6.00 Build 0)  -->
<!DOCTYPE svg PUBLIC "-//W3C//DTD SVG 1.1//EN" "http://www.w3.org/Graphics/SVG/1.1/DTD/svg11.dtd">
<svg version="1.1" id="Layer_1" xmlns="http://www.w3.org/2000/svg" xmlns:xlink="http://www.w3.org/1999/xlink" x="0px" y="0px"
	 width="500px" height="500px" viewBox="0 0 500 500" enable-background="new 0 0 500 500" xml:space="preserve">
<path fill="#FFC200" d="M306.047,183.158c4.812-16.275,19.862-28.192,37.664-28.192c21.676,0,39.305,17.629,39.305,39.301
	c0,16.16-9.808,30.063-23.784,36.096c4.834,2.901,9.405,6.197,13.665,9.845c15.191-9.681,25.312-26.637,25.312-45.94
	c0-30.047-24.441-54.497-54.496-54.497c-22.11,0-41.135,13.259-49.679,32.222C298.283,175.436,302.305,179.153,306.047,183.158z"/>
<path fill="#FFC200" d="M298.809,138.601l-24.834-24.835l-10.744,10.743l24.836,24.835
	C291.25,145.388,294.861,141.79,298.809,138.601z"/>
<path fill="#FFC200" d="M399.373,149.344l24.835-24.819l-10.743-10.743l-24.836,24.819
	C392.586,141.79,396.18,145.388,399.373,149.344z"/>
<path fill="#FFC200" d="M351.311,123.085V88.027h-15.19v35.066c2.495-0.267,5.031-0.415,7.592-0.415
	C346.279,122.679,348.808,122.826,351.311,123.085z"/>
<path fill="#FFC200" d="M388.638,249.929l24.827,24.831l10.743-10.742l-24.827-24.832
	C396.18,243.129,392.586,246.729,388.638,249.929z"/>
<path fill="#AFAFAF" d="M314.575,235.525c-11.794-41.279-50.255-70.661-93.629-70.661c-38.599,0-72.84,22.221-88.614,57.041
	c-45.822,2.352-82.377,40.373-82.377,86.76c0,47.905,38.977,86.882,86.875,86.882h9.266v-15.191h-9.266
	c-39.519,0-71.675-32.155-71.675-71.689c0-39.525,32.156-71.679,71.822-71.679c0.041,0,0.386,0.008,0.427,0.008
	c3.127,0,5.926-1.912,7.067-4.821c12.442-31.66,42.457-52.113,76.476-52.113c38.279,0,72.019,27.109,80.234,64.464
	c0.764,3.48,3.842,5.959,7.403,5.967c35.734,0.058,64.797,29.186,64.797,64.937c0,35.8-29.12,64.929-64.912,64.929h-16.004v15.19
	h16.004c44.172,0,80.111-35.946,80.111-80.119C388.58,273.324,355.891,238.656,314.575,235.525z"/>
<path fill="#FFC200" d="M414.885,186.671c0.271,2.491,0.418,5.027,0.418,7.596s-0.146,5.097-0.418,7.596h35.07v-15.192H414.885
	L414.885,186.671z"/>
<path fill="#64C0FF" d="M172.203,348.289c-4.202,0-7.6,1.781-7.6,3.98v46.412c0,2.199,3.398,3.989,7.6,3.989
	c4.186,0,7.592-1.79,7.592-3.989V352.27C179.794,350.07,176.388,348.289,172.203,348.289z"/>
<path fill="#64C0FF" d="M217.392,358.163c-4.202,0-7.6,1.78-7.6,3.979v46.422c0,2.199,3.398,3.973,7.6,3.973
	c4.194,0,7.6-1.773,7.6-3.973v-46.422C224.992,359.943,221.586,358.163,217.392,358.163z"/>
<path fill="#64C0FF" d="M266.35,348.289c-4.203,0-7.601,1.781-7.601,3.98v46.412c0,2.199,3.397,3.989,7.601,3.989
	c4.186,0,7.592-1.79,7.592-3.989V352.27C273.939,350.07,270.534,348.289,266.35,348.289z"/>
</svg>
